<?xml version="1.0" encoding="UTF-8" standalone="no"?>
<!-- Generator: Adobe Illustrator 18.1.1, SVG Export Plug-In . SVG Version: 6.00 Build 0)  -->

<svg
   xmlns:dc="http://purl.org/dc/elements/1.1/"
   xmlns:cc="http://creativecommons.org/ns#"
   xmlns:rdf="http://www.w3.org/1999/02/22-rdf-syntax-ns#"
   xmlns:svg="http://www.w3.org/2000/svg"
   xmlns="http://www.w3.org/2000/svg"
   xmlns:sodipodi="http://sodipodi.sourceforge.net/DTD/sodipodi-0.dtd"
   xmlns:inkscape="http://www.inkscape.org/namespaces/inkscape"
   version="1.1"
   id="Capa_1"
   x="0px"
   y="0px"
   viewBox="0 0 32 32"
   style="enable-background:new 0 0 32 32;"
   xml:space="preserve"
   sodipodi:docname="framework.svg"
   inkscape:version="0.92.2 5c3e80d, 2017-08-06"><metadata
     id="metadata41"><rdf:RDF><cc:Work
         rdf:about=""><dc:format>image/svg+xml</dc:format><dc:type
           rdf:resource="http://purl.org/dc/dcmitype/StillImage" /></cc:Work></rdf:RDF></metadata><defs
     id="defs39" /><sodipodi:namedview
     pagecolor="#ffffff"
     bordercolor="#666666"
     borderopacity="1"
     objecttolerance="10"
     gridtolerance="10"
     guidetolerance="10"
     inkscape:pageopacity="0"
     inkscape:pageshadow="2"
     inkscape:window-width="1680"
     inkscape:window-height="986"
     id="namedview37"
     showgrid="false"
     inkscape:zoom="7.375"
     inkscape:cx="16.271186"
     inkscape:cy="16"
     inkscape:window-x="0"
     inkscape:window-y="27"
     inkscape:window-maximized="1"
     inkscape:current-layer="Capa_1" /><g
     id="g4"
     transform="matrix(0.75423729,0,0,0.75423729,3.9322034,3.9322034)"><path
       style="fill:#010002"
       d="M 26.997,20.09 V 11.91 C 29.834,11.435 32,8.973 32,6 32,2.687 29.312,0 26,0 c -3.316,0 -6,2.687 -6,6 0,0.609 0.092,1.196 0.262,1.75 l -9.424,4.711 C 9.747,10.972 7.989,10 6,10 c -3.314,0 -6,2.687 -6,6 0,3.312 2.686,6 6,6 1.99,0 3.748,-0.973 4.839,-2.464 l 9.423,4.712 C 20.092,24.803 20,25.391 20,26 c 0,3.312 2.684,6 6,6 3.312,0 6,-2.688 6,-6 0,-2.973 -2.166,-5.436 -5.003,-5.91 z m -1.998,0.001 c -1.573,0.265 -2.935,1.14 -3.838,2.372 L 11.739,17.751 C 11.908,17.197 12,16.609 12,16 12,15.39 11.908,14.801 11.738,14.247 l 9.422,-4.71 c 0.902,1.235 2.266,2.109 3.839,2.374 z"
       id="path2"
       inkscape:connector-curvature="0" /></g><g
     id="g6" /><g
     id="g8" /><g
     id="g10" /><g
     id="g12" /><g
     id="g14" /><g
     id="g16" /><g
     id="g18" /><g
     id="g20" /><g
     id="g22" /><g
     id="g24" /><g
     id="g26" /><g
     id="g28" /><g
     id="g30" /><g
     id="g32" /><g
     id="g34" /></svg>