<?xml version="1.0" encoding="UTF-8" standalone="no"?>
<!-- Generator: Adobe Illustrator 18.1.1, SVG Export Plug-In . SVG Version: 6.00 Build 0)  -->

<svg
   xmlns:dc="http://purl.org/dc/elements/1.1/"
   xmlns:cc="http://creativecommons.org/ns#"
   xmlns:rdf="http://www.w3.org/1999/02/22-rdf-syntax-ns#"
   xmlns:svg="http://www.w3.org/2000/svg"
   xmlns="http://www.w3.org/2000/svg"
   xmlns:sodipodi="http://sodipodi.sourceforge.net/DTD/sodipodi-0.dtd"
   xmlns:inkscape="http://www.inkscape.org/namespaces/inkscape"
   version="1.1"
   id="Capa_1"
   x="0px"
   y="0px"
   viewBox="0 0 63.58 63.58"
   style="enable-background:new 0 0 63.58 63.58;"
   xml:space="preserve"
   sodipodi:docname="human.svg"
   inkscape:version="0.92.2 5c3e80d, 2017-08-06"><metadata
     id="metadata47"><rdf:RDF><cc:Work
         rdf:about=""><dc:format>image/svg+xml</dc:format><dc:type
           rdf:resource="http://purl.org/dc/dcmitype/StillImage" /></cc:Work></rdf:RDF></metadata><defs
     id="defs45" /><sodipodi:namedview
     pagecolor="#ffffff"
     bordercolor="#666666"
     borderopacity="1"
     objecttolerance="10"
     gridtolerance="10"
     guidetolerance="10"
     inkscape:pageopacity="0"
     inkscape:pageshadow="2"
     inkscape:window-width="796"
     inkscape:window-height="480"
     id="namedview43"
     showgrid="false"
     inkscape:zoom="3.711859"
     inkscape:cx="31.790001"
     inkscape:cy="31.790001"
     inkscape:window-x="0"
     inkscape:window-y="27"
     inkscape:window-maximized="0"
     inkscape:current-layer="Capa_1" /><g
     id="g10"
     transform="matrix(0.68340317,0,0,0.68340317,10.064706,10.064613)"><g
       id="g8"><circle
         style="fill:#010002"
         cx="17.146"
         cy="6.2270002"
         r="5.9219999"
         id="circle2" /><path
         style="fill:#010002"
         d="M 62.382,27.448 C 58.938,24.966 56.01,20.634 53.757,16.63 52.906,15.119 51.309,14.182 49.574,14.182 h -6.281 c -1.733,0 -3.333,0.937 -4.183,2.448 -1.963,3.488 -4.438,7.223 -7.32,9.77 -2.882,-2.546 -5.358,-6.281 -7.32,-9.77 -0.851,-1.511 -2.449,-2.448 -4.182,-2.448 h -6.283 c -1.733,0 -3.332,0.937 -4.182,2.448 -2.252,4.004 -5.181,8.336 -8.624,10.818 -2.842,2.046 -0.107,6.807 2.767,4.734 2.84,-2.045 5.424,-4.356 7.651,-6.976 0,15.854 -1.292,27.625 -1.317,35.417 -0.011,3.538 5.472,3.534 5.484,0 0.021,-6.885 0.428,-13.753 1.057,-20.605 h 0.613 c 0.63,6.853 1.036,13.721 1.058,20.605 0.012,3.534 5.495,3.538 5.483,0 -0.025,-7.792 -1.317,-19.563 -1.317,-35.417 2.228,2.619 4.811,4.93 7.651,6.976 0.931,0.669 2.017,0.652 2.924,0 2.84,-2.045 5.424,-4.356 7.651,-6.976 0,15.854 -1.293,27.625 -1.317,35.417 -0.011,3.538 5.473,3.534 5.485,0 0.02,-6.885 0.426,-13.753 1.056,-20.605 h 0.613 c 0.63,6.853 1.036,13.721 1.057,20.605 0.013,3.534 5.495,3.538 5.484,0 -0.024,-7.792 -1.317,-19.563 -1.317,-35.417 2.228,2.619 4.811,4.93 7.651,6.976 2.873,2.073 5.607,-2.687 2.766,-4.734 z"
         id="path4"
         inkscape:connector-curvature="0" /><circle
         style="fill:#010002"
         cx="46.432999"
         cy="6.2270002"
         r="5.9219999"
         id="circle6" /></g></g><g
     id="g12" /><g
     id="g14" /><g
     id="g16" /><g
     id="g18" /><g
     id="g20" /><g
     id="g22" /><g
     id="g24" /><g
     id="g26" /><g
     id="g28" /><g
     id="g30" /><g
     id="g32" /><g
     id="g34" /><g
     id="g36" /><g
     id="g38" /><g
     id="g40" /></svg>