<?xml version="1.0" encoding="utf-8"?>
<!-- Svg Vector Icons : http://www.onlinewebfonts.com/icon -->
<!DOCTYPE svg PUBLIC "-//W3C//DTD SVG 1.1//EN" "http://www.w3.org/Graphics/SVG/1.1/DTD/svg11.dtd">
<svg version="1.1" xmlns="http://www.w3.org/2000/svg" xmlns:xlink="http://www.w3.org/1999/xlink" x="0px" y="0px" viewBox="0 0 1000 1000" enable-background="new 0 0 1000 1000" xml:space="preserve">
<metadata> Svg Vector Icons : http://www.onlinewebfonts.com/icon </metadata>
<g><g transform="translate(0.000000,511.000000) scale(0.100000,-0.100000)"><path d="M455.2,4939.5l-180-70.4l197.7-213.3c109.6-117.4,262.2-258.3,336.6-313.1c76.3-54.8,180.1-137,232.9-184c50.9-45,166.3-125.2,258.3-176.1c195.7-109.6,182-58.7,135-549.9c-15.6-176.1-27.4-330.7-23.5-342.5c5.9-13.7,340.5-195.7,745.6-405.1l735.9-383.6l1000.1-966.8c549.9-532.3,996.1-976.6,992.2-988.3c-3.9-11.7-48.9-152.7-97.9-315.1l-90-293.6l25.4-1708.5c13.7-972.7,33.3-1714.4,43.1-1724.2c9.8-7.8,185.9-74.4,389.5-148.7c205.5-72.4,385.5-138.9,403.1-148.7c27.4-13.7,23.5-54.8-27.4-379.7c-33.3-199.6-54.8-367.9-48.9-371.8c13.7-13.7,1227.1-52.8,1405.2-45l146.8,5.9L6682.6-4607c-193.8,97.9-399.2,197.6-454.1,223.1c-172.2,74.4-279.8,248.5-279.8,450.1c0,48.9,88.1,776.9,197.6,1616.5L6346-790.7l117.4,133.1c72.4,84.2,121.4,160.5,133.1,205.5c7.8,39.1,17.6,195.7,19.6,346.4l2,274l-538.2,790.6l-538.2,788.7L3099.2,3379.8C1756.7,4278.1,652.9,5012,647,5010C641.2,5008,555.1,4976.7,455.2,4939.5z"/><path d="M4475,4532.5c-264.2-93.9-350.3-461.9-152.7-657.6c133.1-133.1,311.2-121.3,459.9,29.4l80.2,84.2l58.7-37.2c33.3-19.6,64.6-37.2,74.4-39.1c7.8-3.9-7.8-82.2-33.3-174.2l-45-170.3l867-641.9c475.6-354.2,867-647.8,867-653.7s-160.5-80.2-356.2-164.4c-195.7-86.1-362.1-160.5-369.9-166.4c-11.7-9.8,1047-1579.3,1109.7-1642c21.5-23.5,74.4-13.7,322.9,52.8c164.4,45,303.4,76.3,309.2,70.5c5.9-5.9-15.6-119.4-45-254.4c-31.3-135-52.9-246.6-47-250.5c3.9-2,185.9,0,403.2,5.9l397.3,9.8l459.9,459.9c252.5,252.5,459.9,471.7,459.9,485.3c0,13.7-60.7,209.4-137,434.5c-74.4,225.1-142.9,446.2-148.7,489.3l-13.7,78.3h66.6c193.8,0,530.4,322.9,624.3,598.9c47,135,50.9,332.7,9.8,473.6c-64.6,215.3-303.3,501-526.5,628.2c-230.9,133.1-553.8,154.6-814.1,56.7l-127.2-48.9l-9.8-193.7c-7.8-139-33.3-272-86.1-467.7c-41.1-150.7-82.2-281.8-90-291.6c-9.8-7.8-103.8,62.6-213.3,158.5c-184,162.4-205.5,176.1-336.6,207.4c-115.5,27.4-332.7,139-1215.4,626.3c-592.9,324.9-1150.7,632.1-1240.8,681.1c-90,48.9-189.8,111.5-219.2,140.9c-56.8,54.8-178.1,111.6-232.9,111.6C4565.1,4559.9,4516.1,4548.1,4475,4532.5z"/><path d="M6935.1,123.2C6743.3,1.9,6717.8-233,6882.2-368c101.8-84.2,199.6-95.9,315.1-37.2c277.9,137,203.5,530.4-107.6,557.8C7019.2,158.5,6980.1,150.6,6935.1,123.2z"/><path d="M7490.8-397.3c-60.7-23.5-115.4-47-121.3-52.8c-9.8-9.8,350.3-1047,369.9-1070.5c7.8-9.8,303.3,97.9,303.3,109.6c0,3.9-84.2,246.6-187.9,534.3c-144.8,401.2-197.7,526.4-221.2,524.5C7616.1-354.3,7551.5-373.9,7490.8-397.3z"/><path d="M6731.5-581.3c0-13.7-31.3-266.2-70.4-563.6c-37.2-297.5-66.5-544.1-62.6-548c17.6-15.7,297.5-47,309.2-33.3c7.9,9.8,43,240.7,76.3,514.7c33.2,274,66.5,522.5,72.4,550c7.9,46.9,2,52.8-54.8,62.6C6825.4-567.6,6731.5-561.7,6731.5-581.3z"/></g></g>
</svg>