<?xml version="1.0" encoding="UTF-8" standalone="no"?>
<!-- Generator: Adobe Illustrator 19.0.0, SVG Export Plug-In . SVG Version: 6.00 Build 0)  -->

<svg
   xmlns:dc="http://purl.org/dc/elements/1.1/"
   xmlns:cc="http://creativecommons.org/ns#"
   xmlns:rdf="http://www.w3.org/1999/02/22-rdf-syntax-ns#"
   xmlns:svg="http://www.w3.org/2000/svg"
   xmlns="http://www.w3.org/2000/svg"
   xmlns:sodipodi="http://sodipodi.sourceforge.net/DTD/sodipodi-0.dtd"
   xmlns:inkscape="http://www.inkscape.org/namespaces/inkscape"
   version="1.1"
   id="Capa_1"
   x="0px"
   y="0px"
   viewBox="0 0 486.924 486.924"
   style="enable-background:new 0 0 486.924 486.924;"
   xml:space="preserve"
   sodipodi:docname="tool.svg"
   inkscape:version="0.92.2 5c3e80d, 2017-08-06"><metadata
     id="metadata81"><rdf:RDF><cc:Work
         rdf:about=""><dc:format>image/svg+xml</dc:format><dc:type
           rdf:resource="http://purl.org/dc/dcmitype/StillImage" /></cc:Work></rdf:RDF></metadata><defs
     id="defs79" /><sodipodi:namedview
     pagecolor="#ffffff"
     bordercolor="#666666"
     borderopacity="1"
     objecttolerance="10"
     gridtolerance="10"
     guidetolerance="10"
     inkscape:pageopacity="0"
     inkscape:pageshadow="2"
     inkscape:window-width="796"
     inkscape:window-height="480"
     id="namedview77"
     showgrid="false"
     inkscape:zoom="0.48467522"
     inkscape:cx="243.46201"
     inkscape:cy="243.46201"
     inkscape:window-x="0"
     inkscape:window-y="27"
     inkscape:window-maximized="0"
     inkscape:current-layer="Capa_1" /><g
     id="g44"
     transform="matrix(0.72881272,0,0,0.72881272,66.02373,66.023663)"><g
       id="g12"><g
         id="g10"><g
           id="g8"><path
             style="fill:#010002"
             d="m 13.361,409.063 c -17.814,17.814 -17.814,46.663 0,64.477 8.907,8.907 20.58,13.345 32.254,13.345 11.674,0 23.347,-4.438 32.254,-13.345 L 227.586,323.792 163.078,259.345 Z"
             id="path2"
             inkscape:connector-curvature="0" /><polygon
             style="fill:#010002"
             points="452.755,97.863 486.893,31.866 455.065,0.038 389.098,34.207 355.324,99.353 276.012,178.756 308.175,210.98 387.548,131.577 "
             id="polygon4" /><path
             style="fill:#010002"
             d="m 401.835,304.641 -6.141,-0.608 c -11.126,0 -21.675,2.28 -31.524,5.928 L 177,122.761 c 3.648,-9.849 5.928,-20.398 5.928,-31.524 L 182.32,85.096 C 179.098,37.642 140.004,0.038 91.73,0.038 c -14.045,0 -27.208,3.435 -39.094,9.12 l 60.586,60.586 c 3.192,3.192 5.381,6.961 6.84,10.944 3.982,10.761 1.824,23.347 -6.84,32.041 -5.928,5.928 -13.71,8.907 -21.492,8.907 -3.587,0 -7.144,-0.79 -10.549,-2.067 -3.982,-1.52 -7.752,-3.648 -10.944,-6.87 L 9.652,52.143 c -5.685,11.886 -9.12,25.049 -9.12,39.094 0,48.274 37.604,87.368 85.058,90.59 l 6.141,0.608 c 11.126,0 21.675,-2.28 31.524,-5.897 l 187.139,187.17 c -3.587,9.849 -5.867,20.398 -5.867,31.524 l 0.638,6.141 c 3.162,47.484 42.286,85.058 90.56,85.058 14.045,0 27.238,-3.374 39.094,-9.12 l -60.586,-60.586 c -3.162,-3.162 -5.381,-6.961 -6.901,-10.913 -3.982,-10.761 -1.824,-23.377 6.901,-32.071 5.867,-5.928 13.71,-8.907 21.492,-8.907 3.587,0 7.113,0.76 10.579,2.067 3.982,1.49 7.782,3.618 10.913,6.84 l 60.586,60.586 c 5.715,-11.917 9.12,-25.049 9.12,-39.094 -0.03,-48.276 -37.634,-87.37 -85.088,-90.592 z"
             id="path6"
             inkscape:connector-curvature="0" /></g></g></g><g
       id="g14" /><g
       id="g16" /><g
       id="g18" /><g
       id="g20" /><g
       id="g22" /><g
       id="g24" /><g
       id="g26" /><g
       id="g28" /><g
       id="g30" /><g
       id="g32" /><g
       id="g34" /><g
       id="g36" /><g
       id="g38" /><g
       id="g40" /><g
       id="g42" /></g><g
     id="g46" /><g
     id="g48" /><g
     id="g50" /><g
     id="g52" /><g
     id="g54" /><g
     id="g56" /><g
     id="g58" /><g
     id="g60" /><g
     id="g62" /><g
     id="g64" /><g
     id="g66" /><g
     id="g68" /><g
     id="g70" /><g
     id="g72" /><g
     id="g74" /></svg>