<?xml version="1.0" encoding="UTF-8" standalone="no"?>
<!-- Created with Inkscape (http://www.inkscape.org/) -->

<svg
   xmlns:dc="http://purl.org/dc/elements/1.1/"
   xmlns:cc="http://creativecommons.org/ns#"
   xmlns:rdf="http://www.w3.org/1999/02/22-rdf-syntax-ns#"
   xmlns:svg="http://www.w3.org/2000/svg"
   xmlns="http://www.w3.org/2000/svg"
   xmlns:sodipodi="http://sodipodi.sourceforge.net/DTD/sodipodi-0.dtd"
   xmlns:inkscape="http://www.inkscape.org/namespaces/inkscape"
   width="64"
   height="64"
   viewBox="0 0 16.933333 16.933334"
   version="1.1"
   id="svg848"
   inkscape:version="0.92.2 5c3e80d, 2017-08-06"
   sodipodi:docname="tux2.svg">
  <defs
     id="defs842">
    <linearGradient
       id="linearGradient3910-6-0-8-7-7-8">
      <stop
         style="stop-color:#000000;stop-opacity:1;"
         offset="0"
         id="stop3912-5-9-3-8-7-4" />
      <stop
         style="stop-color:#4c4c4c;stop-opacity:1;"
         offset="1"
         id="stop3914-0-1-3-0-6-9" />
    </linearGradient>
  </defs>
  <sodipodi:namedview
     id="base"
     pagecolor="#ffffff"
     bordercolor="#666666"
     borderopacity="1.0"
     inkscape:pageopacity="0.0"
     inkscape:pageshadow="2"
     inkscape:zoom="7.9195959"
     inkscape:cx="34.88639"
     inkscape:cy="19.607678"
     inkscape:document-units="mm"
     inkscape:current-layer="layer1"
     showgrid="false"
     units="px"
     inkscape:window-width="1680"
     inkscape:window-height="986"
     inkscape:window-x="0"
     inkscape:window-y="27"
     inkscape:window-maximized="1" />
  <metadata
     id="metadata845">
    <rdf:RDF>
      <cc:Work
         rdf:about="">
        <dc:format>image/svg+xml</dc:format>
        <dc:type
           rdf:resource="http://purl.org/dc/dcmitype/StillImage" />
        <dc:title></dc:title>
      </cc:Work>
    </rdf:RDF>
  </metadata>
  <g
     inkscape:label="Layer 1"
     inkscape:groupmode="layer"
     id="layer1"
     transform="translate(0,-280.06665)">
    <path
       style="color:#000000;display:inline;overflow:visible;visibility:visible;fill:#000000;fill-opacity:1;fill-rule:nonzero;stroke:none;stroke-width:0.24542896;marker:none;enable-background:accumulate"
       d="m 8.4659158,282.17418 c -1.2432295,0 -1.9730825,0.75842 -2.1105415,1.78108 -0.1374537,1.02266 0.083857,1.21005 -0.2603976,2.25729 -0.3442573,1.04721 -1.8876698,2.8424 -1.8515806,4.49874 0.011245,0.51567 0.070622,0.96218 0.1740826,1.35235 0.1268439,-0.21016 0.3147774,-0.35828 0.4517443,-0.42153 0.106926,-0.0494 0.1586097,-0.0731 0.1827133,-0.082 0.00349,-0.0265 0.017066,-0.0868 0.04172,-0.20573 0.033885,-0.16332 0.1637479,-0.41905 0.3855667,-0.58698 -0.00238,-0.0509 -0.00471,-0.10122 -0.00574,-0.15393 -0.025612,-1.28471 1.302176,-2.67652 1.5465795,-3.4888 0.2443956,-0.81225 0.1380807,-0.89589 0.1783953,-1.09771 0.040312,-0.20181 0.1959557,-0.43689 0.4200948,-0.62438 0.021352,-0.0179 0.042132,-0.0257 0.063302,-0.0259 0.204343,-0.002 0.4088315,0.74198 0.8042169,0.74235 0.3953852,5.3e-4 0.6010702,-0.90686 0.8286802,-0.71646 0.224139,0.18749 0.379783,0.42257 0.420092,0.62439 0.04031,0.20181 -0.06601,0.28546 0.178396,1.09771 0.2444063,0.81226 1.5707593,2.20408 1.5451403,3.48879 -0.0011,0.0522 -0.0035,0.10208 -0.0057,0.1525 0.222803,0.1679 0.353044,0.4247 0.387001,0.58842 0.02466,0.11892 0.03823,0.17924 0.04172,0.20573 0.02402,0.009 0.07593,0.034 0.18271,0.0834 0.137012,0.0634 0.323819,0.21128 0.450308,0.42154 0.103738,-0.39058 0.164266,-0.83738 0.175519,-1.3538 0.03609,-1.65634 -1.50876,-3.45153 -1.853017,-4.49874 -0.344255,-1.04723 -0.121507,-1.23463 -0.258961,-2.25729 -0.137456,-1.02265 -0.8687493,-1.78108 -2.1119787,-1.78108 z m -2.442874,8.86512 c -0.05338,0.003 -0.1123686,0.0175 -0.1783954,0.0446 -0.4225713,0.17379 -0.236937,0.53992 -0.4215341,0.77113 -0.1845892,0.23123 -0.5552334,0.11985 -0.6718618,0.59274 -0.116623,0.47289 1.6760852,2.79469 2.6399701,2.39827 0.9638903,-0.39641 0.6054831,-3.30814 0.1899073,-3.56216 -0.4155704,-0.25401 -0.599559,0.0862 -0.8934184,0.0518 -0.2479384,-0.0291 -0.3764016,-0.31303 -0.6646677,-0.29637 z m 4.8555322,0 c -0.266636,0.005 -0.395697,0.26838 -0.634455,0.29637 -0.2938558,0.0344 -0.4778478,-0.3058 -0.8934158,-0.0518 -0.415575,0.25402 -0.7739852,3.16575 0.189908,3.56216 0.9638848,0.39642 2.7565898,-1.92538 2.6399698,-2.39827 -0.116628,-0.47289 -0.485836,-0.36151 -0.670425,-0.59274 -0.184597,-0.23121 0.0011,-0.59734 -0.421529,-0.77113 -0.07924,-0.0326 -0.148519,-0.0457 -0.210053,-0.0446 z m -2.4644504,2.84714 c -0.021061,0.13608 -0.04934,0.26962 -0.08632,0.39852 -0.060277,0.21009 -0.1482566,0.42063 -0.2791037,0.59993 0.1356096,0.008 0.2746005,0.01 0.4172162,0.003 0.1426157,0.007 0.2815616,0.006 0.4172161,-0.003 -0.130847,-0.1793 -0.2188262,-0.38984 -0.2791036,-0.59993 -0.036981,-0.1289 -0.065257,-0.26244 -0.08632,-0.39852 -0.017251,5.3e-4 -0.034372,0.001 -0.051792,0.001 -0.01741,0 -0.034533,-0.001 -0.051793,-0.001 z"
       id="path4372-7"
       inkscape:connector-curvature="0"
       sodipodi:nodetypes="ssssccccccsccccscsccccccssssccccsssccssscccccscccscsc" />
  </g>
</svg>
